<svg width="384" height="80" viewBox="0 0 384 80" fill="none" xmlns="http://www.w3.org/2000/svg">
<rect width="384" height="80" fill="url(#paint0_linear_67_2)"/>
<path d="M275.268 62.5906V26.2559H282.329V55.5282C282.329 59.4287 279.168 62.5906 275.268 62.5906Z" fill="white"/>
<path d="M298.333 39.2545V55.5282C298.333 59.4287 295.171 62.5906 291.272 62.5906V26.2559H296.9L315.677 50.2061V33.3695C315.677 29.4691 318.838 26.3071 322.737 26.3071V62.5906H316.853L298.333 39.2545Z" fill="white"/>
<path d="M262.156 34.8022C262.804 35.2116 263.248 35.5357 263.487 35.7745L263.85 35.1067C265.435 32.1969 264.529 28.735 261.493 27.409C260.612 27.0801 259.69 26.7981 258.728 26.5629C257.228 26.1876 255.625 26 253.919 26C251.463 26 249.229 26.4435 247.217 27.3306C245.204 28.1835 243.601 29.4629 242.408 31.1687C241.248 32.8405 240.668 34.9216 240.668 37.4122C240.668 39.2545 241.043 40.7898 241.794 42.018C242.544 43.2462 243.687 44.2697 245.221 45.0885C246.756 45.8732 248.666 46.5897 250.952 47.2379C252.862 47.7838 254.516 48.2955 255.914 48.7732C257.313 49.2167 258.404 49.7455 259.189 50.3596C259.973 50.9737 260.366 51.8267 260.366 52.9184C260.366 54.1125 259.871 55.0337 258.882 55.6819C257.893 56.3301 256.443 56.6542 254.533 56.6542C253.169 56.6542 251.821 56.4836 250.491 56.1425C249.161 55.8013 247.933 55.3919 246.808 54.9142C245.682 54.4025 244.727 53.9078 243.942 53.4302C243.158 52.9184 242.612 52.509 242.305 52.2019L239.184 58.2918C240.583 59.2812 242.118 60.1342 243.789 60.8506C245.46 61.533 247.2 62.0618 249.008 62.4371C250.815 62.8124 252.623 63 254.431 63C256.239 63 257.944 62.8124 259.547 62.4371C261.15 62.0277 262.583 61.3965 263.845 60.5436C265.107 59.6906 266.096 58.5818 266.812 57.2172C267.528 55.8184 267.887 54.1466 267.887 52.2019C267.887 49.9843 267.409 48.2102 266.454 46.8797C265.533 45.515 264.186 44.4232 262.412 43.6044C260.673 42.7515 258.609 42.035 256.221 41.455C254.38 40.9774 252.845 40.5339 251.617 40.1245C250.389 39.7151 249.468 39.2204 248.854 38.6404C248.24 38.0604 247.933 37.2757 247.933 36.2863C247.933 34.9899 248.411 33.9834 249.366 33.2669C250.355 32.5505 251.804 32.1923 253.714 32.1923C254.806 32.1923 255.88 32.3458 256.938 32.6528C257.995 32.9258 258.967 33.2499 259.854 33.6252C260.775 34.0005 261.542 34.3928 262.156 34.8022Z" fill="white"/>
<path d="M158.147 56.3984C158.147 59.8183 155.375 62.5906 151.956 62.5906H132.923V26.2559H157.686C157.686 29.6758 154.915 32.4482 151.496 32.4482H139.984V41.1992H155.281C155.281 44.5532 152.563 47.2721 149.21 47.2721H139.984V56.3984H158.147Z" fill="white"/>
<path d="M172.756 61.4136C174.871 62.3688 177.105 62.8465 179.459 62.8465C181.557 62.8465 183.518 62.409 185.342 61.534C186.099 61.1711 186.832 60.7329 187.542 60.2194V53.6364C186.832 54.235 186.099 54.7462 185.342 55.1701C183.671 56.1254 181.914 56.603 180.073 56.603C178.504 56.603 177.071 56.296 175.775 55.6819C174.479 55.0337 173.336 54.1637 172.347 53.0719C171.392 51.9802 170.642 50.7008 170.096 49.2338C169.584 47.7667 169.328 46.1632 169.328 44.4232C169.328 42.7856 169.567 41.2333 170.045 39.7663C170.556 38.2992 171.273 37.0028 172.194 35.8769C173.114 34.751 174.206 33.864 175.468 33.2158C176.73 32.5675 178.128 32.2434 179.663 32.2434C181.608 32.2434 183.398 32.7211 185.035 33.6764C186.707 34.6316 188.003 36.0134 188.924 37.8216L194.194 33.9322C192.966 31.544 191.124 29.6335 188.668 28.2006C186.246 26.7335 183.33 26 179.919 26C177.395 26 175.059 26.4776 172.91 27.4329C170.761 28.3882 168.885 29.7017 167.282 31.3734C165.679 33.0452 164.434 34.9899 163.547 37.2075C162.66 39.391 162.217 41.728 162.217 44.2185C162.217 46.8456 162.66 49.2849 163.547 51.5367C164.434 53.7884 165.662 55.7672 167.231 57.473C168.834 59.1448 170.676 60.4583 172.756 61.4136Z" fill="white"/>
<path d="M195.763 62.5906V43.5703H187.781C184.739 43.5703 182.273 46.0372 182.273 49.0802H189.589V62.5906H195.763Z" fill="white"/>
<path d="M99 26.2559V62.5906C102.899 62.5906 106.06 59.4287 106.06 55.5282V32.4482H113.94C114.792 32.4482 115.577 32.6699 116.293 33.1135C117.043 33.557 117.64 34.2223 118.084 35.1093C118.561 35.9963 118.8 37.071 118.8 38.3334C118.8 39.4934 118.595 40.5339 118.186 41.4551C117.777 42.3421 117.231 43.0245 116.549 43.5021C115.867 43.9798 115.099 44.2186 114.246 44.2186H108.175V50.4108H114.656C116.941 50.4108 118.919 49.8308 120.591 48.6709C122.262 47.5109 123.575 46.0097 124.53 44.1674C125.485 42.3251 125.963 40.3804 125.963 38.3334C125.963 36.8322 125.673 35.3652 125.093 33.9323C124.513 32.4993 123.695 31.2029 122.637 30.0429C121.614 28.8829 120.403 27.9618 119.005 27.2794C117.606 26.5971 116.071 26.2559 114.4 26.2559H99Z" fill="white"/>
<path d="M221.887 26.2559H214.724L201.319 62.5906H205.624C207.402 62.5906 208.992 61.4808 209.605 59.811L211.91 53.5325H222.609L221.134 48.5685H213.087L218.305 33.574L223.319 48.5685L227.975 62.5906H235.24L221.887 26.2559Z" fill="white"/>
<path fill-rule="evenodd" clip-rule="evenodd" d="M349.445 63C360.245 63 369 54.7173 369 44.5C369 34.2827 360.245 26 349.445 26C338.645 26 329.89 34.2827 329.89 44.5C329.89 54.7173 338.645 63 349.445 63ZM355.868 38.2863H343.307V50.7137H355.868V38.2863Z" fill="#E8200A"/>
<path d="M78.5026 49.5836C78.2122 48.9851 77.8053 48.2129 77.2956 47.4106C76.7658 46.5767 75.903 45.7056 75.1492 45.0253C74.4431 44.4094 73.3973 44.0108 72.9627 43.8885C71.5479 43.4505 70.3012 42.283 69.8719 40.8278C69.769 40.4788 69.713 40.1133 69.713 39.7374C70.1142 41.2518 71.5786 42.948 73.6648 42.948C76.2725 42.948 76.2324 41.2316 77.8973 42.423C77.2354 42.2413 76.112 42.0595 76.2324 43.3115C76.3528 44.5634 76.869 45.026 78.7599 46.0779C79.5222 46.5019 79.5575 47.4072 79.7986 48.1577C80.0191 48.8443 80.485 47.4712 80.6856 47.0673C81.1069 46.2192 81.7287 46.3202 81.7287 47.0673C81.7287 47.665 81.8733 47.9558 81.9494 47.5318C82.158 46.3687 81.9561 45.1297 81.7287 44.8865C82.0898 45.1894 82.4067 46.2334 82.6314 46.8856C82.765 47.2734 82.7718 47.0673 82.6916 46.4212C82.572 45.7744 82.4211 44.6682 82.0296 43.3923C81.6084 42.0192 80.7774 40.9516 80.3847 39.4749C80.1326 38.5268 80.2828 37.6808 80.3847 37.0176L82.7684 44.9343C83.2401 46.5007 82.9835 48.1975 82.0701 49.552L81.8188 49.9246C81.4739 50.4361 80.8993 50.7424 80.2848 50.7424C79.5223 50.7424 78.8369 50.2728 78.5026 49.5836Z" fill="white"/>
<path d="M78.3136 34.1926C76.6414 33.6893 76.9131 32.5538 76.9549 31.7782C76.977 31.2751 77.5215 28.8688 77.791 27.7285C79.7564 29.1301 80.8786 31.0248 81.1354 33.1655C81.4029 35.3958 80.8427 36.7817 79.296 37.4315C79.8812 36.656 80.2366 34.7715 78.3136 34.1926Z" fill="white"/>
<path d="M72.649 25.7864C73.8196 25.8725 74.9901 26.2166 75.7217 26.515C76.1017 26.67 76.4643 26.8442 76.8086 27.0356C75.9934 27.6487 75.1573 28.5082 74.8059 28.9903C74.5346 28.9078 74.2458 28.8391 73.945 28.7807C72.1553 28.4152 70.2117 28.2414 68.3641 28.6327C64.4846 29.4544 61.759 31.3671 60.672 32.0926C60.0032 32.5391 55.1264 35.9596 53.078 38.1396C53.078 38.1396 52.0386 37.0169 51.409 36.3633C50.7795 35.7098 49.7401 34.5871 49.7401 34.5871C49.982 34.4123 50.2261 34.2398 50.4717 34.0697C51.1476 33.8299 53.3813 33.6337 55.0702 34.0697C53.8997 33.2036 52.0115 33.2943 51.4123 33.434C52.4133 32.7738 53.4245 32.1566 54.4013 31.5954C55.12 31.2161 57.0624 30.6798 59.2507 30.9816C58.2683 30.5414 57.042 30.3337 56.4498 30.4709C58.6066 29.3416 60.3837 28.5858 61.1737 28.3824C61.6893 28.2496 62.825 27.9422 64.5808 28.3195C63.8492 27.8584 62.8459 27.7994 62.2606 27.7804C63.1498 27.2988 64.1637 26.8022 65.4378 26.4161C66.0648 26.3658 67.528 26.3575 68.3641 26.7264C68.0129 26.3575 66.88 26.2013 66.3575 26.1693C67.2563 26.0755 69.3381 26.106 70.4752 26.978C69.8732 26.2569 68.7961 25.8482 68.176 25.7864C68.9615 25.6783 69.5137 25.7183 70.4752 25.7111C71.3322 25.7421 73.2259 26.064 73.945 27.1037C73.6106 26.2485 72.9417 25.8692 72.649 25.7864Z" fill="white"/>
<path d="M77.0612 29.1059C76.7767 30.2483 76.5816 31.572 76.5816 31.572C76.3192 31.7592 76.2581 31.8282 76.0133 31.9026C75.5161 32.0537 75.2319 30.9917 76.1199 29.4142C76.8453 28.1255 77.0272 27.772 77.1499 27.5465C77.2387 27.3833 77.3986 27.1294 77.3986 27.1294C77.3986 27.1294 76.9648 27.4532 76.6704 27.7641C76.1554 28.3081 75.6582 28.8339 75.0011 29.8675C74.5289 30.6101 74.415 31.2334 74.3795 31.5176C74.2941 31.4489 74.0859 31.2894 74.0421 31.2274C74.0657 31.0038 74.2694 30.4586 75.0366 29.4142C75.8038 28.3697 76.9842 27.2261 77.5584 26.8937C77.5584 26.8937 77.3456 27.9635 77.0612 29.1059Z" fill="white"/>
<path d="M76.7814 37.0669C76.1097 36.8083 75.932 35.7264 75.8634 35.3392C75.1055 38.2011 76.7566 38.8341 77.2276 38.888C78.0612 38.9833 78.269 39.0729 78.4212 39.2314C78.6321 37.5972 77.8988 37.497 76.7814 37.0669Z" fill="white"/>
<path d="M39.5123 30.5841C40.6568 31.5829 42.3006 32.7968 43.1538 33.4765C40.9897 32.6026 39.4707 31.1528 38.3471 30.376C39.4457 32.1572 42.8 35.0858 44.3398 36.3274C43.5422 36.0638 41.4308 35.0955 39.3667 33.3309C37.3025 31.5663 36.5645 28.3783 36.4535 27.0049C37.1125 27.9136 38.6818 29.8592 39.5123 30.5841Z" fill="white"/>
<path d="M39.3063 35.1108C40.6933 36.2065 44.2047 37.9331 45.7871 38.6594C44.7469 38.51 41.5147 36.9785 40.0287 36.2314C42.2693 38.3731 46.1221 40.5825 47.7685 41.4194C46.709 41.205 43.9502 40.3528 41.3909 38.6594C38.8316 36.9661 37.49 34.3845 37.1391 33.3054C37.2836 33.4507 37.9193 34.0151 39.3063 35.1108Z" fill="white"/>
<path d="M37.0535 38.5713C38.4396 39.9362 44.4378 41.831 47.2636 42.6078L47.2742 42.6107C47.481 42.6675 47.8027 42.7559 47.9649 42.8991C47.9649 42.8991 47.8824 42.8649 47.3667 42.7534C46.8511 42.642 42.4645 41.5466 40.7044 41.0889C41.942 42.2541 47.5867 44.1544 50.2544 44.9589C47.6555 44.9381 43.7365 43.8146 41.5501 42.6078C39.8009 41.6424 37.8235 39.5145 37.0535 38.5713Z" fill="white"/>
<path d="M42.426 45.261C44.1965 45.9299 48.4861 46.6684 50.4096 46.954C49.5133 46.9331 46.877 46.7116 43.5015 45.9926C44.2668 46.4524 46.2813 47.1798 47.969 47.6647C49.6567 48.1496 52.2918 48.9187 54.1119 49.1277C49.5616 49.504 45.9214 48.0618 43.6463 47.0376C41.8262 46.2183 39.9785 44.6201 39.2822 43.9234C39.5924 44.0906 40.6555 44.5922 42.426 45.261Z" fill="white"/>
<path d="M44.6826 49.7929C47.2028 50.7622 51.9096 50.8814 53.948 50.8197C52.4655 51.1976 49.7614 51.1415 48.5946 51.0662C49.863 51.7727 54.9157 52.0177 57.2835 52.052C56.0344 52.3258 52.9555 52.7831 50.633 52.4216C48.3105 52.0602 45.6983 50.5185 44.6826 49.7929Z" fill="white"/>
<path d="M49.483 54.583C51.3718 54.8176 54.6607 54.2059 56.1105 53.8499C54.6607 54.4992 52.7553 54.9321 52.134 55.0228C52.5896 55.0926 53.8074 55.2323 55.0335 55.1485C56.2596 55.0647 58.0435 54.7226 58.7408 54.6249C57.6804 55.4627 55.7998 55.9165 55.0335 55.9863C52.4819 56.1706 50.27 55.1275 49.483 54.583Z" fill="white"/>
<path d="M35.8064 32.8445C34.2798 32.3188 32.1747 30.937 31.4565 30.0256C31.2377 30.7674 31.0995 32.4842 32.2978 33.4167C33.496 34.3493 35.396 34.7096 36.1962 34.7732C34.9993 34.0526 32.6876 33.2684 32.1952 31.4032C33.1185 32.0815 35.2975 32.8445 35.8064 32.8445Z" fill="white"/>
<path d="M36.1037 36.0894C33.5691 35.4654 31.5091 34.1464 30.7959 33.5649C30.8302 34.3517 31.2732 36.1181 32.7709 36.8898C34.2686 37.6615 36.1928 37.8134 36.9677 37.7928C35.6716 37.3158 32.8943 36.1143 32.1537 35.1247C33.0932 35.4463 35.1985 36.0894 36.1037 36.0894Z" fill="white"/>
<path d="M35.7787 39.0767C32.9549 38.2387 31.0517 37.0095 30.4531 36.4997C30.4531 37.247 30.7957 38.9342 32.1664 39.7053C33.537 40.4763 35.7099 40.7668 36.625 40.8157C35.3796 40.3547 32.6618 39.1521 31.8361 38.0291C32.765 38.4133 34.8704 39.1605 35.7787 39.0767Z" fill="white"/>
<path d="M36.6376 41.5209C33.6159 41.3727 31.2556 40.4712 30.4531 40.039C30.7506 40.6702 31.7523 42.0931 33.3793 42.7352C35.0064 43.3774 37.364 43.2635 38.3394 43.1263C36.7829 42.845 33.4208 42.0807 32.4247 41.2739C33.4416 41.4386 35.7079 41.7185 36.6376 41.5209Z" fill="white"/>
<path d="M34.8893 44.1369C33.8323 43.9223 32.5771 43.3871 32.0816 43.1464C32.4601 43.8342 33.6424 45.3626 35.3435 45.9734C37.0446 46.5842 39.1353 46.2967 39.9679 46.0766C39.6239 46.0284 38.5889 45.8578 37.2015 45.5607C35.8142 45.2635 34.5452 44.639 34.0842 44.3639C35.488 44.727 37.5319 44.7078 38.3783 44.6527C37.6557 44.5702 35.9463 44.3515 34.8893 44.1369Z" fill="white"/>
<path d="M40.7326 47.3472C37.61 47.6123 34.9786 47.0159 34.0533 46.6846C34.5125 47.223 35.8316 48.4157 37.4347 48.8795C39.4384 49.4593 41.7762 49.128 42.8825 48.6517C38.8916 48.6021 36.9894 47.9684 36.5371 47.6578C37.546 47.7061 39.7975 47.7117 40.7326 47.3472Z" fill="white"/>
<path d="M43.3123 50.38C40.1223 50.5107 37.5249 49.9853 36.6249 49.7062C37.1649 50.2439 38.5979 51.4213 40.0102 51.8296C40.9101 52.1495 43.2417 52.5647 45.3684 51.6663C42.1119 51.6336 39.8163 50.9857 39.0756 50.6658C39.8994 50.7067 41.9001 50.7067 43.3123 50.38Z" fill="white"/>
<path d="M46.7006 52.9007C44.1818 53.4305 41.1056 53.2318 39.8823 53.0663C40.5495 53.5629 42.3052 54.61 43.9899 54.8252C46.0959 55.0942 48.2644 54.4113 49.1401 53.9561C45.4537 54.2375 43.1698 53.894 42.4887 53.6871C43.5938 53.5767 45.9833 53.2649 46.7006 52.9007Z" fill="white"/>
<path d="M70.1129 51.6259C67.0388 47.3033 68.0248 43.9304 69.3154 42.2665C67.2485 44.5156 66.9557 45.7169 67.4088 48.9954C64.6392 46.7243 64.7429 42.7802 68.8921 37.1905C67.509 38.4819 64.3127 42.4371 64.3127 45.5084C64.3127 48.9809 66.6072 50.401 69.3154 53.2571C70.1129 54.0982 70.6857 55.2111 71.0917 56.5711C71.8748 59.194 69.6054 61.9499 68.3729 63C71.5086 61.1684 74.2268 57.4103 70.1129 51.6259Z" fill="white"/>
<path d="M37.9875 25.761C37.5794 24.8844 37.2194 23.9822 37.1243 23.0955C36.8716 19.6381 38.2352 17.2257 38.9486 16.4516C35.9896 19.2315 35.057 23.1586 34.9606 24.7747C32.2661 24.3752 31.1792 21.9726 30.9726 20.8212C29.5675 24.3502 32.481 27.8681 34.1134 29.1859C30.7246 30.0848 27.2187 27.2772 25.8894 25.761C25.9224 28.8139 29.1404 31.8271 30.7452 32.9521C26.9763 34.1173 23.0447 31.6898 21.5501 30.3303C22.5915 33.6263 26.2269 36.1149 27.9144 36.9472C24.7405 38.7117 20.4343 37.0859 18.6779 36.0524C20.9591 38.9156 25.3039 40.3943 27.1912 40.7758C25.8522 43.073 21.3848 42.7178 19.3185 42.2531C23.2693 44.4338 27.6871 44.5489 29.4021 44.3339C29.2534 46.3814 25.056 46.8794 22.9758 46.8724C26.001 47.9711 30.7384 47.6909 32.7289 47.4134C32.4975 49.8604 29.3401 50.5415 27.7904 50.5762C30.5675 51.4751 34.5404 50.5762 36.1797 50.0144C36.7252 52.0619 33.7621 53.2673 32.2124 53.6141C33.5844 53.9304 37.2611 53.2604 38.9279 52.8859C39.5395 54.9 37.1853 56.2082 35.9318 56.6104C38.1964 56.8435 41.008 55.681 42.1307 55.0707C42.9738 56.6853 41.2147 58.0739 40.2297 58.5664C41.9158 58.4831 44.2384 57.4774 45.1889 56.985C46.1312 58.3833 44.7963 59.4819 44.0111 59.8564C45.3335 59.8564 47.083 58.9964 47.7925 58.5664C49.2141 59.2489 48.5639 60.4321 48.0611 60.9384C49.8299 60.3225 50.4374 59.7801 50.52 59.5859C50.2858 60.2795 49.3422 61.8415 47.4412 62.5406C45.5402 63.2398 44.2384 62.6932 43.8251 62.3326C44.2039 62.2632 45.1145 61.983 45.7261 61.417C46.3378 60.8511 46.5182 60.1408 46.532 59.8564C45.795 60.2795 43.9284 61.1632 42.358 61.313C40.7876 61.4628 39.72 60.8899 39.3825 60.5847C39.7613 60.5362 40.738 60.3475 41.6141 59.9813C42.4903 59.6151 42.9573 58.9548 43.0813 58.6704C42.5509 59.0103 41.0686 59.7482 39.3825 59.9813C37.6964 60.2143 36.0213 59.5651 35.3945 59.2114C35.6976 59.1698 36.5971 59.0033 37.7708 58.6704C38.9444 58.3375 40.2573 56.9642 40.767 56.3191C39.3825 57.2763 37.1096 57.9837 34.8366 58.067C33.0182 58.1336 31.3652 57.2763 30.7659 56.8393C31.7164 56.7492 33.8613 56.4565 34.8366 56.007C35.8119 55.5576 37.1991 54.2245 37.7708 53.6141C37.3437 53.8291 36.2252 54.3174 35.1672 54.5505C33.8448 54.8418 32.1297 55.2371 29.5881 55.1747C27.5548 55.1248 26.0685 53.8222 25.5794 53.1772C26.2958 53.2327 28.0631 53.2854 29.4021 53.0523C30.7411 52.8193 31.9162 51.9842 32.3363 51.5958C30.9726 51.9148 27.7449 52.4697 25.7447 52.1368C23.7445 51.8039 22.1562 50.3196 21.6121 49.6191C22.3353 49.7786 24.1413 50.0519 25.5794 49.8688C27.0176 49.6856 28.7271 48.7798 29.4021 48.3498C28.307 48.6203 22.7692 48.8284 20.145 47.8296C18.0456 47.0306 17.2728 45.4575 17.1488 44.7709C18.2164 45.083 20.4343 45.6221 22.17 45.5824C23.6247 45.5491 25.2832 45.0552 25.9307 44.7709C24.009 44.7293 19.5953 44.3422 17.3141 43.1271C15.0329 41.9119 14.8621 39.8741 15.0618 39.0071C16.0674 39.569 18.4933 40.5219 19.959 40.7758C21.8807 41.1087 23.5751 41.1295 25.4555 40.7758C23.83 40.5122 19.9259 39.4566 17.3141 37.3425C14.7023 35.2285 15.7437 32.8689 16.5909 31.9533C16.5427 32.1129 16.8141 32.6983 18.2853 33.7636C19.7565 34.829 22.8519 35.4005 24.2157 35.5531C22.6177 34.6306 19.2358 32.2613 18.4919 30.1639C17.748 28.0665 19.7937 26.2243 20.9095 25.5654C21.0817 26.2867 21.703 27.9458 22.8106 28.8114C23.9181 29.677 25.6277 30.1847 26.344 30.3303C25.3039 29.824 23.1412 28.2013 22.8106 25.761C22.4799 23.3207 24.8631 21.6175 26.096 21.0709C26.1236 21.82 26.4225 23.5762 27.3978 24.6082C28.3731 25.6403 29.6777 26.1064 30.208 26.2104C29.4641 25.6209 27.7834 23.6061 28.183 20.3635C28.5343 17.5128 32.5636 15.5083 34.6506 15.1199C32.5512 17.5336 33.7759 20.093 34.6506 21.0709C34.8297 19.5797 35.816 16.0438 38.3287 13.8298C40.8414 11.6159 45.6298 11.0208 47.7099 11C44.2823 12.6164 42.7167 13.8162 41.2067 16.2622C39.6966 18.7082 39.953 21.772 40.3106 22.9132C40.4782 23.6051 40.8224 24.3075 41.2067 25.0406C41.6792 25.7789 42.1517 26.5172 42.7526 27.2914C43.9142 28.8091 45.2926 30.368 46.6628 31.9832C48.0812 33.5729 49.5396 35.1933 51.0463 36.7882C52.5529 38.383 54.0596 39.9778 55.5262 41.5419C56.9928 43.1059 58.4994 44.7008 59.5967 46.3568C59.8965 46.8092 60.1729 47.2624 60.4223 47.7161C62.116 50.7965 60.8215 54.9208 60.4223 56.0967C60.6067 54.8649 60.329 52.6186 60.1753 51.6022C60.1313 51.3109 60.0551 51.0357 59.9727 50.7965C59.5279 49.505 58.8106 48.159 57.8304 46.8784C56.6769 45.3043 55.1459 43.8785 53.5428 42.3349C51.9799 40.822 50.3368 39.2476 48.7337 37.7039C47.0906 36.1295 45.4876 34.5859 43.9328 33.0166C42.3779 31.4474 40.9113 29.8833 39.6294 28.2733L38.7402 27.0273C38.4438 26.612 38.2357 26.2019 37.9875 25.761Z" fill="white"/>
<defs>
<linearGradient id="paint0_linear_67_2" x1="192" y1="0" x2="192" y2="80" gradientUnits="userSpaceOnUse">
<stop stop-color="#161615"/>
<stop offset="1" stop-color="#111110"/>
</linearGradient>
</defs>
</svg>
